<!--?xml version="1.0" standalone="no"?-->
              <svg id="sw-js-blob-svg" viewBox="0 0 100 100" xmlns="http://www.w3.org/2000/svg" version="1.1">
                    <defs> 
                        <linearGradient id="sw-gradient" x1="0" x2="1" y1="1" y2="0">
                            <stop id="stop1" stop-color="rgba(0, 0, 0, 1)" offset="0%"></stop>
                            <stop id="stop2" stop-color="rgba(0, 0, 0, 1)" offset="100%"></stop>
                        </linearGradient>
                    </defs>
                <path fill="url(#sw-gradient)" d="M21.9,-27.5C27.8,-21.2,31.7,-13.7,32.5,-6.2C33.3,1.4,31,9,27.1,15.6C23.2,22.1,17.7,27.7,10,32.7C2.4,37.8,-7.3,42.3,-15.6,40.4C-23.8,38.4,-30.6,30,-33.1,21.3C-35.6,12.5,-33.7,3.5,-31,-4.3C-28.3,-12.1,-24.7,-18.6,-19.3,-25.1C-14,-31.5,-7,-37.9,0.5,-38.5C8,-39.1,16,-33.9,21.9,-27.5Z" width="100%" height="100%" transform="translate(50 50)" stroke-width="0" style="transition: all 0.3s ease 0s;" stroke="url(#sw-gradient)"></path>
              </svg>